<svg width="19" height="19" viewBox="0 0 19 19" fill="none" xmlns="http://www.w3.org/2000/svg">
<rect x="0.166992" y="0.70768" width="18" height="18" rx="9" fill="#0F2945"/>
<path d="M13.465 11.5762C13.1275 11.5682 12.7027 11.5484 12.4343 11.5012C12.144 11.4498 11.7947 11.3502 11.5488 11.2736C11.3559 11.2136 11.1459 11.2666 11.0029 11.4091L9.81522 12.5898C8.99451 12.1575 8.33719 11.6539 7.78058 11.0941C7.22076 10.5375 6.71719 9.88017 6.28487 9.05946L7.46558 7.87125C7.60808 7.72821 7.66112 7.51821 7.60112 7.32535C7.52505 7.08 7.42487 6.73071 7.37397 6.44035C7.3263 6.17196 7.30701 5.74714 7.29844 5.40964C7.29147 5.11767 7.05362 4.88625 6.76165 4.88625H4.8813C4.64665 4.88625 4.34558 5.06196 4.34558 5.42196C4.34558 7.85357 5.3313 10.1759 7.00594 11.8687C8.6988 13.5434 11.0211 14.5291 13.4527 14.5291C13.8127 14.5291 13.9884 14.228 13.9884 13.9934V12.113C13.9884 11.8211 13.757 11.5832 13.465 11.5762Z" fill="#27F3B5"/>
</svg>
