<svg width="13" height="16" viewBox="0 0 13 16" fill="none" xmlns="http://www.w3.org/2000/svg">
<path d="M7.379 0.5H2C1.175 0.5 0.5 1.175 0.5 2V14C0.5 14.825 1.175 15.5 2 15.5H11C11.825 15.5 12.5 14.825 12.5 14V5.621C12.5 5.2235 12.3417 4.84175 12.0605 4.5605L8.4395 0.9395C8.15825 0.65825 7.7765 0.5 7.379 0.5ZM8.75 12.5H4.25C3.836 12.5 3.5 12.164 3.5 11.75C3.5 11.336 3.836 11 4.25 11H8.75C9.164 11 9.5 11.336 9.5 11.75C9.5 12.164 9.164 12.5 8.75 12.5ZM8.75 9.5H4.25C3.836 9.5 3.5 9.164 3.5 8.75C3.5 8.336 3.836 8 4.25 8H8.75C9.164 8 9.5 8.336 9.5 8.75C9.5 9.164 9.164 9.5 8.75 9.5ZM7.25 5.75V1.625L11.375 5.75H7.25Z" fill="#0F2945"/>
</svg>
