<svg width="36" height="36" viewBox="0 0 36 36" fill="none" xmlns="http://www.w3.org/2000/svg">
<path d="M27.6 0.766602H8.4C6.27904 0.769089 4.24569 1.59518 2.74595 3.06368C1.24621 4.53218 0.402534 6.52317 0.399994 8.59994V21.1333C0.402321 22.9384 1.04014 24.6875 2.20594 26.0859C3.37175 27.4843 4.99426 28.4463 6.8 28.8099V33.6666C6.79995 33.9502 6.87855 34.2286 7.0274 34.4719C7.17625 34.7152 7.38976 34.9144 7.64517 35.0482C7.90058 35.182 8.18829 35.2454 8.47762 35.2317C8.76695 35.2179 9.04704 35.1275 9.288 34.9701L18.48 28.9666H27.6C29.721 28.9641 31.7543 28.138 33.2541 26.6695C34.7538 25.201 35.5975 23.21 35.6 21.1333V8.59994C35.5975 6.52317 34.7538 4.53218 33.2541 3.06368C31.7543 1.59518 29.721 0.769089 27.6 0.766602ZM24.4 19.5666H11.6C11.1756 19.5666 10.7687 19.4015 10.4686 19.1077C10.1686 18.8139 10 18.4154 10 17.9999C10 17.5844 10.1686 17.1859 10.4686 16.8921C10.7687 16.5983 11.1756 16.4333 11.6 16.4333H24.4C24.8243 16.4333 25.2313 16.5983 25.5314 16.8921C25.8314 17.1859 26 17.5844 26 17.9999C26 18.4154 25.8314 18.8139 25.5314 19.1077C25.2313 19.4015 24.8243 19.5666 24.4 19.5666ZM27.6 13.2999H8.4C7.97565 13.2999 7.56868 13.1349 7.26862 12.8411C6.96857 12.5473 6.8 12.1488 6.8 11.7333C6.8 11.3178 6.96857 10.9193 7.26862 10.6255C7.56868 10.3317 7.97565 10.1666 8.4 10.1666H27.6C28.0243 10.1666 28.4313 10.3317 28.7314 10.6255C29.0314 10.9193 29.2 11.3178 29.2 11.7333C29.2 12.1488 29.0314 12.5473 28.7314 12.8411C28.4313 13.1349 28.0243 13.2999 27.6 13.2999Z" fill="#111D2C"/>
</svg>
