<svg width="31" height="20" viewBox="0 0 31 20" fill="none" xmlns="http://www.w3.org/2000/svg">
<path d="M30.575 4.42457C30.2088 4.14553 29.6921 4.08673 29.259 4.27492L22.6325 7.15445L16.4148 0.755386C16.1849 0.518668 15.8511 0.38269 15.5 0.38269C15.149 0.38269 14.8152 0.518668 14.5852 0.755386L8.36753 7.15439L1.74104 4.27486C1.30795 4.08673 0.79124 4.14548 0.424931 4.42451C0.0586227 4.70355 -0.0876585 5.14986 0.0523864 5.56114L4.65395 19.0724C4.80901 19.5278 5.2794 19.839 5.81251 19.839H25.1875C25.7206 19.839 26.191 19.5278 26.346 19.0725L30.9476 5.56119C31.0877 5.14991 30.9414 4.7036 30.575 4.42457ZM24.2899 17.6772H6.71L3.17703 7.30329L8.1432 9.46136C8.6363 9.6756 9.22881 9.5674 9.58803 9.19773L15.5 3.11332L21.4121 9.19773C21.7712 9.56746 22.3639 9.67555 22.8568 9.46136L27.823 7.30329L24.2899 17.6772Z" fill="url(#paint0_linear_310_2693)"/>
<defs>
<linearGradient id="paint0_linear_310_2693" x1="29.5315" y1="0.457101" x2="5.4632" y2="22.7471" gradientUnits="userSpaceOnUse">
<stop stop-color="#27F3B5"/>
<stop offset="1" stop-color="#038BED"/>
</linearGradient>
</defs>
</svg>
