<svg width="70" height="70" viewBox="0 0 70 70" fill="none" xmlns="http://www.w3.org/2000/svg">
<path d="M52.9846 15.7555V66.4044C52.9846 68.3903 51.3749 69.9999 49.3892 69.9999H7.67136C5.68552 69.9999 4.07593 68.3901 4.07593 66.4044V15.7555C4.07593 13.7696 5.68565 12.16 7.67136 12.16H49.3892C51.375 12.16 52.9846 13.7698 52.9846 15.7555Z" fill="#A4BBDB"/>
<path d="M52.9847 15.7555V65.3157H11.646C9.66013 65.3157 8.05054 63.7061 8.05054 61.7203V12.16H49.3894C51.3751 12.16 52.9847 13.7698 52.9847 15.7555Z" fill="#94ACCD"/>
<path d="M63.3709 55.5074L23.4501 67.6153C21.5494 68.1916 19.5424 67.1185 18.966 65.2193L4.26478 16.7491C3.68701 14.8498 4.76012 12.8414 6.66078 12.265L7.43721 12.0294L46.5816 0.155701C48.4822 -0.420569 50.4893 0.652536 51.0657 2.5532L65.4348 49.9232L65.7684 51.0233C66.3445 52.9226 65.2714 54.9311 63.3709 55.5074Z" fill="#CADCF0"/>
<path d="M65.4345 49.9232L26.2887 61.7955C24.3881 62.3718 22.3811 61.2986 21.8046 59.3995L7.43701 12.0295L46.5814 0.155701C48.482 -0.420569 50.4891 0.652537 51.0655 2.5532L65.4345 49.9232Z" fill="#E9F3FC"/>
<path d="M51.6451 30.4124C51.4744 29.8497 50.8795 29.5322 50.3173 29.7027L19.9692 38.9081C19.4066 39.0788 19.0889 39.6733 19.2595 40.2359C19.3989 40.6955 19.8211 40.9918 20.2778 40.9918C20.3802 40.9918 20.4843 40.9769 20.5872 40.9457L50.9353 31.7403C51.498 31.5696 51.8156 30.975 51.6451 30.4124Z" fill="#7B97BF"/>
<path d="M53.4171 36.254C53.2464 35.6913 52.6518 35.374 52.0893 35.5443L21.7412 44.7496C21.1786 44.9203 20.8608 45.5148 21.0315 46.0774C21.1709 46.537 21.5931 46.8333 22.0497 46.8333C22.1521 46.8333 22.2563 46.8184 22.3591 46.7872L52.7073 37.5818C53.2699 37.4111 53.5877 36.8166 53.4171 36.254Z" fill="#7B97BF"/>
<path d="M55.189 42.0956C55.0182 41.533 54.4233 41.2154 53.8611 41.3859L23.5131 50.5913C22.9505 50.7621 22.6328 51.3565 22.8034 51.9191C22.9429 52.3788 23.3651 52.675 23.8217 52.675C23.9241 52.675 24.0283 52.6601 24.1311 52.629L54.4792 43.4236C55.0418 43.2527 55.3597 42.6582 55.189 42.0956Z" fill="#7B97BF"/>
<path d="M56.9608 47.9372C56.7901 47.3745 56.1955 47.0572 55.633 47.2275L25.2849 56.4329C24.7223 56.6037 24.4045 57.1982 24.5752 57.7608C24.7146 58.2204 25.1368 58.5167 25.5934 58.5167C25.6958 58.5167 25.8 58.5018 25.9028 58.4706L56.251 49.2652C56.8137 49.0943 57.1314 48.4997 56.9608 47.9372Z" fill="#7B97BF"/>
<path d="M32.0227 26.2244L32.5158 28.0645L30.347 28.6456L29.854 26.8055L28.441 27.1841L28.0272 25.6397L29.4402 25.2611L29.0616 23.8481L27.6486 24.2267L27.2304 22.6659L28.6433 22.2873L27.2742 17.1776L32.2196 15.8525C33.282 15.5679 34.1868 15.6365 34.9338 16.0586C35.6918 16.4777 36.2131 17.2184 36.4978 18.2809C36.7795 19.3324 36.6984 20.2346 36.2545 20.9875C35.8186 21.7265 35.0694 22.2383 34.0069 22.523L31.2303 23.267L31.6089 24.68L35.4206 23.6586L35.8344 25.203L32.0227 26.2244ZM30.8121 21.7062L33.3751 21.0194C33.8023 20.905 34.1001 20.7019 34.2684 20.4103C34.4478 20.1157 34.4817 19.7603 34.3702 19.3441L34.1633 18.5719C34.0517 18.1556 33.8491 17.8812 33.5553 17.7486C33.2585 17.6051 32.9021 17.5891 32.4858 17.7006L29.9228 18.3874L30.8121 21.7062Z" fill="#7B97BF"/>
<path d="M20.7106 8.00402L18.6723 8.62144C18.0407 6.74348 16.2634 5.38791 14.1755 5.38791C11.5594 5.38791 9.43161 7.51566 9.43161 10.1318V22.4385C9.43161 23.9673 10.6764 25.2121 12.2052 25.2121C13.734 25.2121 14.9788 23.9673 14.9788 22.4385V10.1587C14.9788 10.0197 14.9462 9.8876 14.8852 9.77125C14.7446 9.49439 14.4566 9.30422 14.1243 9.30422C13.6531 9.30422 13.2699 9.68744 13.2699 10.1587V20.7209C13.2699 21.3085 12.793 21.7855 12.2052 21.7855C11.6175 21.7855 11.1406 21.3087 11.1406 20.7209V10.1587C11.1406 8.51357 12.4792 7.17496 14.1243 7.17496C15.4161 7.17496 16.5176 7.99965 16.932 9.14945C17.0456 9.46459 17.108 9.80529 17.108 10.1587V22.4384C17.108 25.141 14.9077 27.3411 12.2052 27.3411C9.5012 27.3411 7.30249 25.1409 7.30249 22.4384V10.1318C7.30249 6.3418 10.3855 3.25879 14.1755 3.25879C17.2231 3.25879 19.8135 5.25311 20.7106 8.00402Z" fill="#617B9E"/>
</svg>
