<svg width="37" height="30" viewBox="0 0 37 30" fill="none" xmlns="http://www.w3.org/2000/svg">
<g clip-path="url(#clip0_414_2270)">
<path d="M6.8885 29.3852V27.4674C6.8885 26.7338 6.45926 26.2535 5.7224 26.2535C5.35397 26.2535 4.95334 26.3801 4.67791 26.7972C4.46329 26.4471 4.15567 26.2535 3.69424 26.2535C3.38661 26.2535 3.07899 26.3503 2.83576 26.7003V26.3168H2.19189V29.3852H2.83576V27.6909C2.83576 27.1472 3.11119 26.8902 3.54043 26.8902C3.96967 26.8902 4.18429 27.177 4.18429 27.6909V29.3852H4.82815V27.6909C4.82815 27.1472 5.13577 26.8902 5.53282 26.8902C5.96206 26.8902 6.17668 27.177 6.17668 27.6909V29.3852H6.8885ZM16.4391 26.3168H15.3946V25.3895H14.7508V26.3168H14.1677V26.9238H14.7508V28.3314C14.7508 29.0352 15.0262 29.4486 15.7631 29.4486C16.0385 29.4486 16.3461 29.3517 16.5607 29.2251L16.3747 28.6479C16.1887 28.7745 15.9741 28.808 15.8203 28.808C15.5127 28.808 15.391 28.6144 15.391 28.2979V26.9238H16.4355V26.3168H16.4391ZM21.9048 26.2497C21.5363 26.2497 21.2895 26.4434 21.1357 26.6966V26.313H20.4919V29.3815H21.1357V27.6536C21.1357 27.1435 21.3503 26.853 21.751 26.853C21.8726 26.853 22.0264 26.8865 22.1516 26.9163L22.3376 26.2758C22.2088 26.2497 22.0264 26.2497 21.9048 26.2497ZM13.6455 26.57C13.3378 26.3466 12.9086 26.2497 12.4472 26.2497C11.7103 26.2497 11.2203 26.6333 11.2203 27.2403C11.2203 27.7505 11.5887 28.0409 12.2326 28.134L12.5402 28.1675C12.8764 28.2308 13.0624 28.3277 13.0624 28.4878C13.0624 28.7112 12.8156 28.8714 12.3864 28.8714C11.9571 28.8714 11.6173 28.7112 11.4027 28.5511L11.0951 29.0613C11.4313 29.3182 11.8927 29.4448 12.3542 29.4448C13.2127 29.4448 13.7063 29.0278 13.7063 28.4543C13.7063 27.9106 13.3057 27.6239 12.694 27.527L12.3864 27.4935C12.1109 27.46 11.8963 27.3967 11.8963 27.2068C11.8963 26.9833 12.1109 26.8567 12.4507 26.8567C12.8192 26.8567 13.1876 27.0169 13.3736 27.1137L13.6455 26.57ZM30.7758 26.2497C30.4073 26.2497 30.1605 26.4434 30.0067 26.6966V26.313H29.3628V29.3815H30.0067V27.6536C30.0067 27.1435 30.2213 26.853 30.6219 26.853C30.7436 26.853 30.8974 26.8865 31.0226 26.9163L31.2086 26.2833C31.0834 26.2497 30.9009 26.2497 30.7758 26.2497ZM22.5486 27.851C22.5486 28.7783 23.1639 29.4486 24.1154 29.4486C24.5446 29.4486 24.8522 29.3517 25.1599 29.0985L24.8522 28.5548C24.6054 28.7485 24.3622 28.8416 24.0832 28.8416C23.5609 28.8416 23.1925 28.458 23.1925 27.851C23.1925 27.2738 23.5609 26.8902 24.0832 26.8605C24.3586 26.8605 24.6054 26.9573 24.8522 27.1472L25.1599 26.6035C24.8522 26.3466 24.5446 26.2535 24.1154 26.2535C23.1639 26.2497 22.5486 26.9238 22.5486 27.851ZM28.5044 27.851V26.3168H27.8605V26.7003C27.6459 26.4136 27.3382 26.2535 26.9376 26.2535C26.1078 26.2535 25.4639 26.9238 25.4639 27.851C25.4639 28.7783 26.1078 29.4486 26.9376 29.4486C27.3669 29.4486 27.6745 29.2884 27.8605 29.0017V29.3852H28.5044V27.851ZM26.14 27.851C26.14 27.3073 26.4762 26.8605 27.0306 26.8605C27.5529 26.8605 27.9213 27.2775 27.9213 27.851C27.9213 28.3947 27.5529 28.8416 27.0306 28.8416C26.4798 28.808 26.14 28.391 26.14 27.851ZM18.4351 26.2497C17.5766 26.2497 16.9614 26.8902 16.9614 27.8473C16.9614 28.808 17.5766 29.4448 18.4673 29.4448C18.8965 29.4448 19.3258 29.3182 19.6656 29.0278L19.3579 28.5474C19.1111 28.741 18.8035 28.8676 18.4995 28.8676C18.0988 28.8676 17.7018 28.674 17.6088 28.134H19.7872C19.7872 28.0372 19.7872 27.9739 19.7872 27.8771C19.8158 26.8902 19.2614 26.2497 18.4351 26.2497ZM18.4351 26.8269C18.8357 26.8269 19.1111 27.0839 19.1719 27.5605H17.6374C17.6982 27.1472 17.9736 26.8269 18.4351 26.8269ZM34.4314 27.851V25.1028H33.7876V26.7003C33.573 26.4136 33.2653 26.2535 32.8647 26.2535C32.0349 26.2535 31.391 26.9238 31.391 27.851C31.391 28.7783 32.0349 29.4486 32.8647 29.4486C33.294 29.4486 33.6016 29.2884 33.7876 29.0017V29.3852H34.4314V27.851ZM32.0671 27.851C32.0671 27.3073 32.4033 26.8605 32.9577 26.8605C33.48 26.8605 33.8484 27.2775 33.8484 27.851C33.8484 28.3947 33.48 28.8416 32.9577 28.8416C32.4033 28.808 32.0671 28.391 32.0671 27.851ZM10.512 27.851V26.3168H9.86815V26.7003C9.65353 26.4136 9.34591 26.2535 8.94528 26.2535C8.11542 26.2535 7.47156 26.9238 7.47156 27.851C7.47156 28.7783 8.11542 29.4486 8.94528 29.4486C9.37452 29.4486 9.68215 29.2884 9.86815 29.0017V29.3852H10.512V27.851ZM8.11899 27.851C8.11899 27.3073 8.45523 26.8605 9.00967 26.8605C9.53191 26.8605 9.90034 27.2775 9.90034 27.851C9.90034 28.3947 9.53191 28.8416 9.00967 28.8416C8.45523 28.808 8.11899 28.391 8.11899 27.851Z" fill="black"/>
<path d="M23.1031 3.01282H13.4309V21.1034H23.1031V3.01282Z" fill="#FF5A00"/>
<path d="M14.0748 12.0581C14.0748 8.3826 15.7345 5.12047 18.2814 3.01276C16.407 1.47852 14.0426 0.55127 11.4636 0.55127C5.35407 0.55127 0.410645 5.69768 0.410645 12.0581C0.410645 18.4185 5.35407 23.5649 11.4636 23.5649C14.0426 23.5649 16.407 22.6376 18.2814 21.1034C15.731 19.0255 14.0748 15.7335 14.0748 12.0581Z" fill="#EB001B"/>
<path d="M36.152 12.0581C36.152 18.4185 31.2085 23.5649 25.099 23.5649C22.52 23.5649 20.1556 22.6376 18.2812 21.1034C20.8603 18.9919 22.4878 15.7335 22.4878 12.0581C22.4878 8.3826 20.8281 5.12047 18.2812 3.01276C20.152 1.47852 22.5164 0.55127 25.0954 0.55127C31.2085 0.55127 36.152 5.73119 36.152 12.0581Z" fill="#F79E1B"/>
</g>
<defs>
<clipPath id="clip0_414_2270">
<rect width="35.7414" height="28.8973" fill="white" transform="translate(0.410645 0.55127)"/>
</clipPath>
</defs>
</svg>
