<svg width="62" height="19" viewBox="0 0 62 19" fill="none" xmlns="http://www.w3.org/2000/svg">
<g clip-path="url(#clip0_414_2276)">
<path fill-rule="evenodd" clip-rule="evenodd" d="M55.0861 0.59314H43.3953C44.0238 4.46603 47.795 8.08906 51.9434 8.08906H61.2458C61.3715 7.71427 61.3715 7.21454 61.3715 6.83974C61.3715 3.34165 58.6059 0.59314 55.0861 0.59314Z" fill="url(#paint0_linear_414_2276)"/>
<path fill-rule="evenodd" clip-rule="evenodd" d="M44.4009 8.71375V18.0837H50.0577V13.0864H55.0861C57.8516 13.0864 60.2401 11.2124 60.9943 8.71375H44.4009Z" fill="#4DB45F"/>
<path fill-rule="evenodd" clip-rule="evenodd" d="M24.2876 0.59314V18.0836H29.3159C29.3159 18.0836 30.573 18.0836 31.2015 16.8343C34.5957 10.088 35.6013 8.08907 35.6013 8.08907H36.2299V18.0836H41.8867V0.59314H36.8584C36.8584 0.59314 35.6013 0.718072 34.9728 1.84246C32.0815 7.58934 30.573 10.5877 30.573 10.5877H29.9445V0.59314H24.2876Z" fill="#4DB45F"/>
<path fill-rule="evenodd" clip-rule="evenodd" d="M0.403076 18.0836V0.59314H6.05994C6.05994 0.59314 7.69414 0.59314 8.5741 3.09178C10.8368 9.71318 11.0883 10.5877 11.0883 10.5877C11.0883 10.5877 11.5911 8.96359 13.6024 3.09178C14.4824 0.59314 16.1166 0.59314 16.1166 0.59314H21.7734V18.0836H16.1166V8.71373H15.488L12.3453 18.0836H9.83118L6.68848 8.71373H6.05994V18.0836H0.403076Z" fill="#4DB45F"/>
</g>
<defs>
<linearGradient id="paint0_linear_414_2276" x1="43.3628" y1="4.3411" x2="61.3715" y2="4.3411" gradientUnits="userSpaceOnUse">
<stop stop-color="#00B4E6"/>
<stop offset="1" stop-color="#088CCB"/>
</linearGradient>
<clipPath id="clip0_414_2276">
<rect width="61.597" height="17.4905" fill="white" transform="translate(0.403076 0.59314)"/>
</clipPath>
</defs>
</svg>
