<svg width="67" height="22" viewBox="0 0 67 22" fill="none" xmlns="http://www.w3.org/2000/svg">
<path d="M28.6692 20.8292H23.3098L26.662 0.953369H32.0211L28.6692 20.8292Z" fill="#00579F"/>
<path d="M48.0975 1.43933C47.0404 1.03717 45.3637 0.59314 43.2905 0.59314C37.9979 0.59314 34.271 3.2995 34.2481 7.16877C34.2041 10.0235 36.9165 11.6091 38.9452 12.561C41.0186 13.5336 41.7235 14.1685 41.7235 15.0355C41.7024 16.367 40.048 16.9808 38.505 16.9808C36.3652 16.9808 35.2187 16.6643 33.4764 15.9235L32.7707 15.606L32.0208 20.0677C33.2777 20.6168 35.5936 21.1041 37.9979 21.1255C43.6214 21.1255 47.2825 18.461 47.3258 14.3377C47.3472 12.0751 45.915 10.3414 42.8272 8.92467C40.9527 8.01524 39.8047 7.40203 39.8047 6.47152C39.8267 5.62561 40.7757 4.75918 42.8917 4.75918C44.634 4.71675 45.9141 5.11835 46.8839 5.52022L47.3686 5.73128L48.0975 1.43933Z" fill="#00579F"/>
<path d="M55.2206 13.7879C55.6619 12.6461 57.3603 8.2268 57.3603 8.2268C57.338 8.26924 57.8008 7.06389 58.0654 6.32392L58.44 8.03654C58.44 8.03654 59.4549 12.7942 59.6753 13.7879C58.8377 13.7879 56.2792 13.7879 55.2206 13.7879ZM61.8361 0.953369H57.6906C56.4122 0.953369 55.441 1.31253 54.8894 2.60248L46.9287 20.8289H52.5522C52.5522 20.8289 53.478 18.3758 53.677 17.8474C54.2939 17.8474 59.7644 17.8474 60.558 17.8474C60.7119 18.5452 61.1975 20.8289 61.1975 20.8289H66.1598L61.8361 0.953369Z" fill="#00579F"/>
<path d="M18.8334 0.953369L13.5848 14.5068L13.0113 11.758C12.0409 8.58625 8.99768 5.14021 5.60156 3.42675L10.4091 20.8081H16.0765L24.5006 0.953369H18.8334Z" fill="#00579F"/>
<path d="M8.71097 0.953369H0.0882142L0 1.35497C6.72629 3.00435 11.181 6.98014 13.0112 11.7588L11.1367 2.62411C10.8281 1.35469 9.87973 0.995243 8.71097 0.953369Z" fill="#FAA61A"/>
</svg>
