<svg width="15" height="19" viewBox="0 0 15 19" fill="none" xmlns="http://www.w3.org/2000/svg">
<path d="M13.4483 0.989258H1.55167C0.696079 0.989258 0 1.68534 0 2.54093V17.0922C0 17.9477 0.696079 18.6438 1.55167 18.6438H13.4483C14.3039 18.6438 15 17.9477 15 17.0922V2.54093C15 1.68534 14.3039 0.989258 13.4483 0.989258ZM5.0309 15.495C5.0309 15.7806 4.79932 16.0122 4.51367 16.0122H2.65156C2.36592 16.0122 2.13434 15.7806 2.13434 15.495V13.8547C2.13434 13.5691 2.36588 13.3375 2.65156 13.3375H4.51371C4.79935 13.3375 5.03093 13.5691 5.03093 13.8547V15.495H5.0309ZM5.0309 11.5213C5.0309 11.8069 4.79932 12.0385 4.51367 12.0385H2.65156C2.36588 12.0385 2.13434 11.807 2.13434 11.5213V9.88102C2.13434 9.59538 2.36592 9.3638 2.65156 9.3638H4.51371C4.79935 9.3638 5.03093 9.59538 5.03093 9.88102V11.5213H5.0309ZM8.94831 15.495C8.94831 15.7806 8.71673 16.0122 8.43109 16.0122H6.56895C6.2833 16.0122 6.05172 15.7806 6.05172 15.495V13.8547C6.05172 13.5691 6.2833 13.3375 6.56895 13.3375H8.43109C8.71673 13.3375 8.94831 13.5691 8.94831 13.8547V15.495ZM8.94831 11.5213C8.94831 11.8069 8.71673 12.0385 8.43109 12.0385H6.56895C6.2833 12.0385 6.05172 11.807 6.05172 11.5213V9.88102C6.05172 9.59538 6.2833 9.3638 6.56895 9.3638H8.43109C8.71673 9.3638 8.94831 9.59538 8.94831 9.88102V11.5213ZM12.8657 15.495C12.8657 15.7806 12.6341 16.0122 12.3484 16.0122H10.4863C10.2006 16.0122 9.96907 15.7806 9.96907 15.495V13.8547C9.96907 13.5691 10.2006 13.3375 10.4863 13.3375H12.3484C12.6341 13.3375 12.8657 13.5691 12.8657 13.8547V15.495ZM12.8657 11.5213C12.8657 11.8069 12.6341 12.0385 12.3484 12.0385H10.4863C10.2006 12.0385 9.96907 11.807 9.96907 11.5213V9.88102C9.96907 9.59538 10.2006 9.3638 10.4863 9.3638H12.3484C12.6341 9.3638 12.8657 9.59538 12.8657 9.88102V11.5213ZM12.8657 6.54503C12.8657 6.83068 12.6341 7.06226 12.3484 7.06226H2.65156C2.36592 7.06226 2.13434 6.83068 2.13434 6.54503V4.33142C2.13434 4.04577 2.36592 3.8142 2.65156 3.8142H12.3485C12.6341 3.8142 12.8657 4.04577 12.8657 4.33142V6.54503H12.8657Z" fill="#0F2945"/>
</svg>
