<svg width="16" height="16" viewBox="0 0 16 16" fill="none" xmlns="http://www.w3.org/2000/svg">
<path d="M8.54324 7.69677V4.56429C8.54324 4.15982 8.21537 3.83195 7.8109 3.83195C7.40643 3.83195 7.07856 4.15982 7.07856 4.56429V8.00011C7.07856 8.19431 7.1557 8.38061 7.29306 8.51794C7.29306 8.51795 7.29307 8.51795 7.29307 8.51796L9.58361 10.8085C9.86958 11.0945 10.3333 11.0945 10.6193 10.8085L8.54324 7.69677ZM8.54324 7.69677L10.6193 9.77282C10.9053 10.0588 10.9053 10.5225 10.6193 10.8085L8.54324 7.69677ZM10.2514 0.398229V0.396143H10.1014H5.52035C4.36819 0.396143 3.22994 0.76796 2.2845 1.49557V1.12848C2.2845 0.724014 1.95663 0.396143 1.55216 0.396143C1.14769 0.396143 0.819818 0.724014 0.819818 1.12848V3.41903C0.819818 3.82388 1.15031 4.15137 1.55216 4.15137H3.84271C4.24718 4.15137 4.57505 3.8235 4.57505 3.41903C4.57505 3.01456 4.24718 2.68669 3.84271 2.68669H3.14156C3.81102 2.16106 4.64705 1.86082 5.52035 1.86082H10.1014C12.2235 1.86082 13.9502 3.58748 13.9502 5.70955V10.2906C13.9502 12.4127 12.2235 14.1394 10.1014 14.1394H5.52035C3.39827 14.1394 1.67162 12.4127 1.67162 10.2907V8.00011C1.67162 7.59564 1.34374 7.26776 0.939274 7.26776C0.534805 7.26776 0.206934 7.59564 0.206934 8.00011V10.2907C0.206934 13.2206 2.59038 15.6041 5.52035 15.6041H10.1014C13.0314 15.6041 15.4149 13.2206 15.4149 10.2907V5.70955C15.4149 2.82975 13.1123 0.477915 10.2514 0.398229Z" fill="#0F2945" stroke="#0F2945" stroke-width="0.3"/>
</svg>
