<svg width="15" height="15" viewBox="0 0 15 15" fill="none" xmlns="http://www.w3.org/2000/svg">
<path d="M13.8903 8.6582H9.17606C8.82102 8.6582 8.5332 8.94602 8.5332 9.30106V14.0153C8.5332 14.3704 8.82102 14.6582 9.17606 14.6582H13.8903C14.2454 14.6582 14.5332 14.3704 14.5332 14.0153V9.30106C14.5332 8.94602 14.2454 8.6582 13.8903 8.6582Z" fill="#0F2945"/>
<path d="M5.35714 8.6582H0.642857C0.287817 8.6582 0 8.94602 0 9.30106V14.0153C0 14.3704 0.287817 14.6582 0.642857 14.6582H5.35714C5.71218 14.6582 6 14.3704 6 14.0153V9.30106C6 8.94602 5.71218 8.6582 5.35714 8.6582Z" fill="#0F2945"/>
<path d="M13.8903 0.125H9.17606C8.82102 0.125 8.5332 0.412817 8.5332 0.767857V5.48214C8.5332 5.83718 8.82102 6.125 9.17606 6.125H13.8903C14.2454 6.125 14.5332 5.83718 14.5332 5.48214V0.767857C14.5332 0.412817 14.2454 0.125 13.8903 0.125Z" fill="#0F2945"/>
<path d="M5.35714 0.125H0.642857C0.287817 0.125 0 0.412817 0 0.767857V5.48214C0 5.83718 0.287817 6.125 0.642857 6.125H5.35714C5.71218 6.125 6 5.83718 6 5.48214V0.767857C6 0.412817 5.71218 0.125 5.35714 0.125Z" fill="#0F2945"/>
</svg>
