<svg width="19" height="20" viewBox="0 0 19 20" fill="none" xmlns="http://www.w3.org/2000/svg">
<path d="M15.2244 6.7669L11.2511 2.74023C9.13522 3.45773 1.71689 3.83607 3.41022 9.63857C3.41022 9.65607 3.41939 9.67357 3.41939 9.69107H5.66605C5.67522 9.6469 5.69272 9.5944 5.71855 9.55023C6.17689 8.7394 7.01355 8.22857 7.93855 8.17607C9.62772 8.09607 10.3477 9.4244 10.4319 9.49773C10.5552 9.67357 10.5377 9.9119 10.3969 10.0619L9.95605 10.5027L7.00439 13.4544C6.61689 13.8419 6.52022 14.4411 6.77522 14.8644C7.13605 15.4719 8.03522 15.5777 8.52855 15.0844L11.2419 12.3269L12.3519 11.1994L15.2244 6.7669Z" fill="#0F2945"/>
<path d="M16.6608 6.775C16.9583 6.775 16.9933 6.56833 17.9649 5.6475C18.1408 5.47167 18.1408 5.19833 17.9649 5.02167C12.9191 0.0458332 13.1108 0 12.7583 0C12.6524 0 12.5383 0.0441667 12.4499 0.1325C11.5866 1.05167 11.3574 1.09083 11.3574 1.41C11.3574 1.6675 11.5483 1.76583 11.6566 1.90333C11.7433 1.955 16.2591 6.5575 16.3433 6.64333C16.4316 6.7225 16.5116 6.74833 16.6608 6.775Z" fill="#0F2945"/>
<path d="M6.425 12.9665C6.425 12.9665 8.93333 10.4248 8.925 10.4165H1.41667C0.333252 10.4165 0 10.9998 0 11.8332V18.5832C0 19.4998 0.416667 19.9998 1.41667 19.9998H10.2667C11.3333 19.9998 11.6833 19.4998 11.6833 18.5832V12.9998L9.04167 15.6832C8.68333 16.0415 8.2 16.2415 7.69167 16.2415C6.16333 16.2415 5.3025 14.5348 6.16167 13.279C6.23667 13.1723 6.32667 13.0648 6.425 12.9665ZM6.1625 13.2782C6.23583 13.1707 6.3175 13.0657 6.41667 12.9665C6.31833 13.0648 6.23667 13.1715 6.1625 13.2782Z" fill="#0F2945"/>
</svg>
