<svg width="15" height="14" viewBox="0 0 15 14" fill="none" xmlns="http://www.w3.org/2000/svg">
<path d="M13.7713 0H6.22871C5.55121 0 5 0.672682 5 1.50051C5 2.32732 5.55121 3 6.22871 3H13.7713C14.4488 3 15 2.32732 15 1.50051C15 0.67265 14.4488 0 13.7713 0Z" fill="#0F2945"/>
<path d="M1.50002 0C0.672929 0 0 0.672897 0 1.49998C0 2.32707 0.672929 2.99997 1.50002 2.99997C2.3271 2.99997 3 2.32707 3 1.49998C3 0.672897 2.3271 0 1.50002 0Z" fill="#0F2945"/>
<path d="M1.50002 5.0835C0.672929 5.0835 0 5.75639 0 6.58348C0 7.41057 0.672929 8.08346 1.50002 8.08346C2.3271 8.08346 3 7.41057 3 6.58348C3 5.75639 2.3271 5.0835 1.50002 5.0835Z" fill="#0F2945"/>
<path d="M1.50002 10.1672C0.672929 10.1672 0 10.8401 0 11.6672C0 12.4943 0.672929 13.1672 1.50002 13.1672C2.3271 13.1672 3 12.4943 3 11.6672C3 10.8401 2.3271 10.1672 1.50002 10.1672Z" fill="#0F2945"/>
<path d="M13.7713 5H6.22871C5.55121 5 5 5.67268 5 6.50051C5 7.32732 5.55121 8 6.22871 8H13.7713C14.4488 8 15 7.32732 15 6.50051C15 5.67265 14.4488 5 13.7713 5Z" fill="#0F2945"/>
<path d="M13.7713 10H6.22871C5.55121 10 5 10.6727 5 11.5005C5 12.3273 5.55121 13 6.22871 13H13.7713C14.4488 13 15 12.3273 15 11.5005C15 10.6727 14.4488 10 13.7713 10Z" fill="#0F2945"/>
</svg>
