<svg width="180" height="45" viewBox="0 0 180 45" fill="none" xmlns="http://www.w3.org/2000/svg">
<rect x="35.373" y="12.9946" width="13.1809" height="13.1809" rx="0.3" transform="rotate(45 35.373 12.9946)" fill="white"/>
<rect x="22.3462" y="0.0322876" width="13.1809" height="13.1809" rx="0.3" transform="rotate(45 22.3462 0.0322876)" fill="#27F3B5"/>
<rect x="22.3467" y="26.0845" width="13.1809" height="13.1809" rx="0.3" transform="rotate(45 22.3467 26.0845)" fill="white"/>
<rect x="9.32031" y="13.0583" width="13.1809" height="13.1809" rx="0.3" transform="rotate(45 9.32031 13.0583)" fill="#27F3B5"/>
<path d="M62.2578 17.2169C60.7439 17.2169 59.6368 17.7366 58.8912 18.5952V13.0143H55.502V28.8306H58.8912V27.7687C59.6368 28.6273 60.7439 29.1469 62.2578 29.1469C65.2177 29.1469 67.6579 26.5485 67.6579 23.1819C67.6579 19.8153 65.2177 17.2169 62.2578 17.2169ZM61.5799 25.9385C60.0209 25.9385 58.8912 24.8765 58.8912 23.1819C58.8912 21.4873 60.0209 20.4254 61.5799 20.4254C63.139 20.4254 64.2687 21.4873 64.2687 23.1819C64.2687 24.8765 63.139 25.9385 61.5799 25.9385Z" fill="white"/>
<path d="M77.7814 17.5332V18.5952C77.0358 17.7366 75.9287 17.2169 74.4148 17.2169C71.4549 17.2169 69.0147 19.8153 69.0147 23.1819C69.0147 26.5485 71.4549 29.1469 74.4148 29.1469C75.9287 29.1469 77.0358 28.6273 77.7814 27.7687V28.8306H81.1707V17.5332H77.7814ZM75.0927 25.9385C73.5336 25.9385 72.4039 24.8765 72.4039 23.1819C72.4039 21.4873 73.5336 20.4254 75.0927 20.4254C76.6517 20.4254 77.7814 21.4873 77.7814 23.1819C77.7814 24.8765 76.6517 25.9385 75.0927 25.9385Z" fill="white"/>
<path d="M90.2774 17.2169C88.7861 17.2169 87.6564 17.7592 87.0464 18.5952V17.5332H83.6571V28.8306H87.0464V22.6622C87.0464 21.058 87.905 20.335 89.1477 20.335C90.2322 20.335 91.1134 20.9902 91.1134 22.3911V28.8306H94.5026V21.894C94.5026 18.8437 92.5595 17.2169 90.2774 17.2169Z" fill="white"/>
<path d="M107.676 28.8306L103.45 23.1819L107.563 17.5332H103.608L100.219 22.4815V13.0143H96.8301V28.8306H100.219V23.8372L103.834 28.8306H107.676Z" fill="white"/>
<path d="M112.311 19.5442V17.5332H108.922V28.8306H112.311V23.7242C112.311 21.4873 114.299 20.9224 115.7 21.1484V17.3073C114.277 17.3073 112.763 18.0303 112.311 19.5442Z" fill="white"/>
<path d="M122.376 29.1469C125.698 29.1469 128.364 26.5485 128.364 23.1819C128.364 19.8153 125.698 17.2169 122.376 17.2169C119.055 17.2169 116.389 19.8153 116.389 23.1819C116.389 26.5485 119.055 29.1469 122.376 29.1469ZM122.376 25.8481C120.908 25.8481 119.778 24.7862 119.778 23.1819C119.778 21.5777 120.908 20.5157 122.376 20.5157C123.845 20.5157 124.975 21.5777 124.975 23.1819C124.975 24.7862 123.845 25.8481 122.376 25.8481Z" fill="white"/>
<path d="M131.297 29.1469C132.472 29.1469 133.443 28.1754 133.443 27.0004C133.443 25.8255 132.472 24.8539 131.297 24.8539C130.122 24.8539 129.15 25.8255 129.15 27.0004C129.15 28.1754 130.122 29.1469 131.297 29.1469Z" fill="white"/>
<path d="M142.567 20.786V17.5324H140.239V14.3691L136.85 15.3859V17.5324H135.042V20.786H136.85V24.7853C136.85 27.9486 138.138 29.2817 142.567 28.8298V25.7569C141.075 25.8473 140.239 25.7569 140.239 24.7853V20.786H142.567Z" fill="#27F3B5"/>
<path d="M147.293 24.5368H155.314C155.404 24.1075 155.449 23.6556 155.449 23.1811C155.449 19.7693 153.009 17.2161 149.71 17.2161C146.14 17.2161 143.7 19.8145 143.7 23.1811C143.7 26.5477 146.095 29.1461 149.959 29.1461C152.105 29.1461 153.777 28.3553 154.884 26.8188L152.173 25.2598C151.721 25.7569 150.93 26.1184 150.004 26.1184C148.761 26.1184 147.722 25.7117 147.293 24.5368ZM147.225 22.0061C147.541 20.8538 148.4 20.2212 149.688 20.2212C150.704 20.2212 151.721 20.6956 152.083 22.0061H147.225Z" fill="#27F3B5"/>
<path d="M162.684 29.1461C164.898 29.1461 166.819 27.9938 167.79 26.2314L164.83 24.5368C164.469 25.3276 163.633 25.8021 162.639 25.8021C161.17 25.8021 160.086 24.7401 160.086 23.1811C160.086 21.622 161.17 20.5601 162.639 20.5601C163.633 20.5601 164.446 21.0346 164.83 21.8254L167.79 20.1082C166.819 18.3684 164.876 17.2161 162.684 17.2161C159.25 17.2161 156.696 19.8145 156.696 23.1811C156.696 26.5477 159.25 29.1461 162.684 29.1461Z" fill="#27F3B5"/>
<path d="M175.775 17.2161C174.283 17.2161 173.154 17.7583 172.544 18.5943V13.0134H169.154V28.8298H172.544V22.6614C172.544 21.0572 173.402 20.3341 174.645 20.3341C175.729 20.3341 176.611 20.9894 176.611 22.3903V28.8298H180V21.8932C180 18.8429 178.057 17.2161 175.775 17.2161Z" fill="#27F3B5"/>
<circle cx="22.2253" cy="22.4232" r="12.8132" fill="#385272"/>
<rect x="21.9595" y="28.4543" width="7.75096" height="1.29183" rx="0.645913" fill="white"/>
<path d="M23.1875 27.0349C23.1875 26.7587 23.4114 26.5349 23.6875 26.5349H27.8548C28.1309 26.5349 28.3548 26.7587 28.3548 27.0349V27.8267H23.1875V27.0349Z" fill="white"/>
<path d="M18.4504 20.3552C18.6293 20.5332 18.8636 20.6225 19.0979 20.6225C19.3323 20.6225 19.567 20.5332 19.7455 20.3543L22.772 17.3284C23.1289 16.971 23.1289 16.3897 22.744 16.0052C22.3866 15.6482 21.8059 15.6478 21.4484 16.0052L18.4225 19.0315C18.0655 19.3885 18.0655 19.9698 18.4229 20.3277L18.4504 20.3552Z" fill="white"/>
<path d="M20.0491 21.8962C18.3764 23.2698 16.4804 24.9719 16.2708 25.1816C15.814 25.6379 15.814 26.3812 16.2708 26.838C16.4991 27.0664 16.7989 27.1808 17.0986 27.1808C17.3989 27.1808 17.6986 27.0663 17.927 26.838C18.1366 26.6279 19.8386 24.7312 21.212 23.0597C21.0084 22.8789 20.807 22.6926 20.6111 22.4972C20.4152 22.3008 20.2294 22.0994 20.0491 21.8962Z" fill="white"/>
<path d="M27.075 20.3362C26.7185 19.9801 26.1377 19.9787 25.7794 20.3362L22.7534 23.3625C22.396 23.7195 22.396 24.3012 22.7534 24.6582L22.7809 24.6857C22.9598 24.8642 23.1946 24.9539 23.4289 24.9539C23.6632 24.9539 23.898 24.8642 24.0765 24.6857L27.1029 21.6594C27.4594 21.3024 27.4595 20.7211 27.075 20.3362Z" fill="white"/>
<path d="M25.7228 19.81C25.3819 19.3651 25.0039 18.9322 24.5897 18.5179C24.1764 18.1042 23.7435 17.7261 23.2977 17.3842C23.2405 17.4799 23.176 17.571 23.095 17.652L20.069 20.6778C19.988 20.7588 19.8969 20.8238 19.8018 20.881C20.1427 21.3259 20.5207 21.7589 20.9344 22.1735C21.3477 22.5864 21.7811 22.9649 22.2264 23.3063C22.2836 23.2111 22.3486 23.1196 22.4296 23.0391L25.4556 20.0128C25.5366 19.9322 25.6276 19.8672 25.7228 19.81Z" fill="white"/>
</svg>
