<svg width="150" height="173" viewBox="0 0 150 173" fill="none" xmlns="http://www.w3.org/2000/svg">
<path fill-rule="evenodd" clip-rule="evenodd" d="M133.75 96.625H16.25V151.004C16.25 153.598 17.9508 155.886 20.4359 156.632C32.2418 160.172 65.4414 170.133 73.3109 172.495C74.4125 172.824 75.5875 172.824 76.6891 172.495C84.5586 170.133 117.758 160.172 129.564 156.632C132.049 155.886 133.75 153.598 133.75 151.004C133.75 137.386 133.75 96.625 133.75 96.625Z" fill="#CADCF0"/>
<path fill-rule="evenodd" clip-rule="evenodd" d="M133.75 96.625H75C75 96.625 74.4301 172.741 75 172.741C75.5699 172.741 76.1368 172.659 76.6891 172.495C84.5586 170.133 117.758 160.172 129.564 156.632C132.049 155.886 133.75 153.598 133.75 151.004C133.75 137.386 133.75 96.625 133.75 96.625Z" fill="#A4BBDB"/>
<path fill-rule="evenodd" clip-rule="evenodd" d="M75 115.686L16.25 96.625C16.25 96.625 5.9482 111.9 1.3422 118.727C0.825201 119.493 0.698888 120.454 0.998513 121.326C1.30108 122.199 1.99139 122.877 2.8697 123.165C14.0293 126.79 47.0644 137.524 55.73 140.338C56.9726 140.743 58.3356 140.276 59.07 139.192C63.0091 133.379 75 115.686 75 115.686Z" fill="#E9F3FC"/>
<path fill-rule="evenodd" clip-rule="evenodd" d="M133.75 96.625L75 115.686C75 115.686 86.9909 133.379 90.9301 139.192C91.6645 140.276 93.0275 140.743 94.27 140.338C102.936 137.524 135.971 126.79 147.13 123.165C148.009 122.877 148.699 122.199 149.002 121.326C149.301 120.454 149.175 119.493 148.658 118.727C144.052 111.9 133.75 96.625 133.75 96.625Z" fill="#E9F3FC"/>
<path fill-rule="evenodd" clip-rule="evenodd" d="M60.7796 56.5838C60.0452 55.5057 58.6851 55.0387 57.4426 55.444C48.7828 58.2552 15.7389 68.9918 4.57933 72.6196C3.70102 72.9045 3.00776 73.5831 2.70814 74.4555C2.40851 75.328 2.53483 76.2915 3.05183 77.0552C7.29358 83.3474 16.25 96.6249 16.25 96.6249L75 77.4988C75 77.4988 64.4485 61.98 60.7796 56.5838Z" fill="#CADCF0"/>
<path fill-rule="evenodd" clip-rule="evenodd" d="M146.948 77.0552C147.465 76.2915 147.592 75.328 147.292 74.4555C146.992 73.5831 146.299 72.9045 145.421 72.6196C134.261 68.9918 101.217 58.2552 92.5575 55.444C91.3149 55.0387 89.9548 55.5057 89.2205 56.5838C85.5515 61.98 75 77.4988 75 77.4988L133.75 96.6249C133.75 96.6249 142.706 83.3474 146.948 77.0552Z" fill="#E9F3FC"/>
<path fill-rule="evenodd" clip-rule="evenodd" d="M133.75 96.6248L75 77.4988L16.25 96.6248L75 115.686L133.75 96.6248Z" fill="#CADCF0"/>
<path fill-rule="evenodd" clip-rule="evenodd" d="M75 115.686V77.4988L16.25 96.6248L75 115.686Z" fill="#A4BBDB"/>
<path fill-rule="evenodd" clip-rule="evenodd" d="M45.7257 23.7917C48.1245 22.4067 52.095 24.7874 54.5881 29.1052C57.0812 33.4229 57.1575 38.0518 54.7587 39.4369C52.36 40.822 48.3894 38.4413 45.8963 34.1235C43.4032 29.8057 43.3269 25.1768 45.7257 23.7917Z" fill="#7B97BF"/>
<path fill-rule="evenodd" clip-rule="evenodd" d="M96.9127 23.7917C94.514 22.4067 90.5435 24.7874 88.0504 29.1052C85.5572 33.4229 85.481 38.0518 87.8797 39.4369C90.2785 40.822 94.249 38.4413 96.7421 34.1235C99.2352 29.8057 99.3115 25.1768 96.9127 23.7917Z" fill="#7B97BF"/>
<path fill-rule="evenodd" clip-rule="evenodd" d="M73.3265 0.0810325C84.1742 0.261693 94.2149 9.53759 93.3999 26.1764C92.898 36.3897 86.5729 39.1759 83.0661 50.2624C81.3559 55.6702 81.1792 61.1301 81.2415 64.0849C81.2676 64.667 81.0387 65.2311 80.6152 65.6285C80.1916 66.028 79.6135 66.2227 79.0354 66.1605C65.9797 64.2294 49.2385 46.9081 49.2385 30.1911C49.2385 12.4643 60.034 -0.141782 73.3265 0.0810325Z" fill="#7B97BF"/>
<path fill-rule="evenodd" clip-rule="evenodd" d="M50.4068 38.0799C49.654 35.4744 49.2385 32.8267 49.2385 30.191C49.2385 12.4643 60.034 -0.141782 73.3265 0.0810325C81.5446 0.217531 89.3009 5.57511 92.2216 15.399C90.6699 30.5724 78.9049 42.3856 64.6428 42.3856C59.4398 42.3856 54.57 40.8119 50.4068 38.0799Z" fill="#617B9E"/>
<path d="M71.3192 34.6253C73.5364 34.6253 75.3339 31.9292 75.3339 28.6033C75.3339 25.2774 73.5364 22.5813 71.3192 22.5813C69.102 22.5813 67.3045 25.2774 67.3045 28.6033C67.3045 31.9292 69.102 34.6253 71.3192 34.6253Z" fill="white"/>
<path fill-rule="evenodd" clip-rule="evenodd" d="M65.2209 14.817C65.5842 16.1459 65.6063 18.4001 63.6211 19.743C63.1614 20.0521 63.041 20.6764 63.3501 21.1361C63.6612 21.5958 64.2855 21.7162 64.7432 21.4051C67.6277 19.458 67.6839 16.2181 67.158 14.2891C67.0115 13.7531 66.4594 13.438 65.9255 13.5845C65.3915 13.729 65.0764 14.281 65.2209 14.817Z" fill="white"/>
<path fill-rule="evenodd" clip-rule="evenodd" d="M75.4804 14.2891C74.9545 16.2181 75.0107 19.458 77.8953 21.4051C78.3529 21.7162 78.9772 21.5958 79.2883 21.1361C79.5975 20.6764 79.477 20.0521 79.0174 19.743C77.0321 18.4001 77.0542 16.1459 77.4175 14.817C77.562 14.281 77.2469 13.729 76.7129 13.5845C76.179 13.438 75.627 13.7531 75.4804 14.2891Z" fill="white"/>
</svg>
